<mxfile host="app.diagrams.net" modified="2020-08-06T07:02:49.402Z" agent="5.0 (Windows NT 10.0; Win64; x64) AppleWebKit/537.36 (KHTML, like Gecko) Chrome/84.0.4147.105 Safari/537.36" etag="ruA1YBJIrIspl-FJ5Y5D" version="13.5.8" type="github">
  <diagram id="Lsx0iEb3Wfj5V0gcPJfd" name="Page-1">
    <mxGraphModel dx="1038" dy="548" grid="1" gridSize="10" guides="1" tooltips="1" connect="1" arrows="1" fold="1" page="1" pageScale="1" pageWidth="827" pageHeight="1169" math="0" shadow="0">
      <root>
        <mxCell id="0" />
        <mxCell id="1" parent="0" />
        <mxCell id="0SaOvBT2-kmUVJj6ePoo-68" value="" style="group" vertex="1" connectable="0" parent="1">
          <mxGeometry x="620" y="140" width="440" height="20" as="geometry" />
        </mxCell>
        <mxCell id="0SaOvBT2-kmUVJj6ePoo-69" value="" style="group" vertex="1" connectable="0" parent="0SaOvBT2-kmUVJj6ePoo-68">
          <mxGeometry width="220" height="20" as="geometry" />
        </mxCell>
        <mxCell id="0SaOvBT2-kmUVJj6ePoo-70" value="21" style="rounded=0;whiteSpace=wrap;html=1;fillColor=#fff2cc;strokeColor=#d6b656;" vertex="1" parent="0SaOvBT2-kmUVJj6ePoo-69">
          <mxGeometry width="20" height="20" as="geometry" />
        </mxCell>
        <mxCell id="0SaOvBT2-kmUVJj6ePoo-71" value="20" style="rounded=0;whiteSpace=wrap;html=1;fillColor=#fff2cc;strokeColor=#d6b656;" vertex="1" parent="0SaOvBT2-kmUVJj6ePoo-69">
          <mxGeometry x="20" width="20" height="20" as="geometry" />
        </mxCell>
        <mxCell id="0SaOvBT2-kmUVJj6ePoo-72" value="19" style="rounded=0;whiteSpace=wrap;html=1;fillColor=#fff2cc;strokeColor=#d6b656;" vertex="1" parent="0SaOvBT2-kmUVJj6ePoo-69">
          <mxGeometry x="40" width="20" height="20" as="geometry" />
        </mxCell>
        <mxCell id="0SaOvBT2-kmUVJj6ePoo-73" value="18" style="rounded=0;whiteSpace=wrap;html=1;fillColor=#fff2cc;strokeColor=#d6b656;" vertex="1" parent="0SaOvBT2-kmUVJj6ePoo-69">
          <mxGeometry x="60" width="20" height="20" as="geometry" />
        </mxCell>
        <mxCell id="0SaOvBT2-kmUVJj6ePoo-74" value="17" style="rounded=0;whiteSpace=wrap;html=1;fillColor=#fff2cc;strokeColor=#d6b656;" vertex="1" parent="0SaOvBT2-kmUVJj6ePoo-69">
          <mxGeometry x="80" width="20" height="20" as="geometry" />
        </mxCell>
        <mxCell id="0SaOvBT2-kmUVJj6ePoo-75" value="16" style="rounded=0;whiteSpace=wrap;html=1;fillColor=#fff2cc;strokeColor=#d6b656;" vertex="1" parent="0SaOvBT2-kmUVJj6ePoo-69">
          <mxGeometry x="100" width="20" height="20" as="geometry" />
        </mxCell>
        <mxCell id="0SaOvBT2-kmUVJj6ePoo-76" value="15" style="rounded=0;whiteSpace=wrap;html=1;fillColor=#fff2cc;strokeColor=#d6b656;" vertex="1" parent="0SaOvBT2-kmUVJj6ePoo-69">
          <mxGeometry x="120" width="20" height="20" as="geometry" />
        </mxCell>
        <mxCell id="0SaOvBT2-kmUVJj6ePoo-77" value="14" style="rounded=0;whiteSpace=wrap;html=1;fillColor=#fff2cc;strokeColor=#d6b656;" vertex="1" parent="0SaOvBT2-kmUVJj6ePoo-69">
          <mxGeometry x="140" width="20" height="20" as="geometry" />
        </mxCell>
        <mxCell id="0SaOvBT2-kmUVJj6ePoo-78" value="13" style="rounded=0;whiteSpace=wrap;html=1;fillColor=#fff2cc;strokeColor=#d6b656;" vertex="1" parent="0SaOvBT2-kmUVJj6ePoo-69">
          <mxGeometry x="160" width="20" height="20" as="geometry" />
        </mxCell>
        <mxCell id="0SaOvBT2-kmUVJj6ePoo-79" value="12" style="rounded=0;whiteSpace=wrap;html=1;fillColor=#fff2cc;strokeColor=#d6b656;" vertex="1" parent="0SaOvBT2-kmUVJj6ePoo-69">
          <mxGeometry x="180" width="20" height="20" as="geometry" />
        </mxCell>
        <mxCell id="0SaOvBT2-kmUVJj6ePoo-80" value="11" style="rounded=0;whiteSpace=wrap;html=1;fillColor=#dae8fc;strokeColor=#6c8ebf;" vertex="1" parent="0SaOvBT2-kmUVJj6ePoo-69">
          <mxGeometry x="200" width="20" height="20" as="geometry" />
        </mxCell>
        <mxCell id="0SaOvBT2-kmUVJj6ePoo-81" value="" style="group" vertex="1" connectable="0" parent="0SaOvBT2-kmUVJj6ePoo-68">
          <mxGeometry x="220" width="220" height="20" as="geometry" />
        </mxCell>
        <mxCell id="0SaOvBT2-kmUVJj6ePoo-82" value="10" style="rounded=0;whiteSpace=wrap;html=1;fillColor=#dae8fc;strokeColor=#6c8ebf;" vertex="1" parent="0SaOvBT2-kmUVJj6ePoo-81">
          <mxGeometry width="20" height="20" as="geometry" />
        </mxCell>
        <mxCell id="0SaOvBT2-kmUVJj6ePoo-83" value="9" style="rounded=0;whiteSpace=wrap;html=1;fillColor=#dae8fc;strokeColor=#6c8ebf;" vertex="1" parent="0SaOvBT2-kmUVJj6ePoo-81">
          <mxGeometry x="20" width="20" height="20" as="geometry" />
        </mxCell>
        <mxCell id="0SaOvBT2-kmUVJj6ePoo-84" value="8" style="rounded=0;whiteSpace=wrap;html=1;fillColor=#dae8fc;strokeColor=#6c8ebf;" vertex="1" parent="0SaOvBT2-kmUVJj6ePoo-81">
          <mxGeometry x="40" width="20" height="20" as="geometry" />
        </mxCell>
        <mxCell id="0SaOvBT2-kmUVJj6ePoo-85" value="7" style="rounded=0;whiteSpace=wrap;html=1;fillColor=#dae8fc;strokeColor=#6c8ebf;" vertex="1" parent="0SaOvBT2-kmUVJj6ePoo-81">
          <mxGeometry x="60" width="20" height="20" as="geometry" />
        </mxCell>
        <mxCell id="0SaOvBT2-kmUVJj6ePoo-86" value="6" style="rounded=0;whiteSpace=wrap;html=1;fillColor=#dae8fc;strokeColor=#6c8ebf;" vertex="1" parent="0SaOvBT2-kmUVJj6ePoo-81">
          <mxGeometry x="80" width="20" height="20" as="geometry" />
        </mxCell>
        <mxCell id="0SaOvBT2-kmUVJj6ePoo-87" value="5" style="rounded=0;whiteSpace=wrap;html=1;fillColor=#dae8fc;strokeColor=#6c8ebf;" vertex="1" parent="0SaOvBT2-kmUVJj6ePoo-81">
          <mxGeometry x="100" width="20" height="20" as="geometry" />
        </mxCell>
        <mxCell id="0SaOvBT2-kmUVJj6ePoo-88" value="4" style="rounded=0;whiteSpace=wrap;html=1;fillColor=#dae8fc;strokeColor=#6c8ebf;" vertex="1" parent="0SaOvBT2-kmUVJj6ePoo-81">
          <mxGeometry x="120" width="20" height="20" as="geometry" />
        </mxCell>
        <mxCell id="0SaOvBT2-kmUVJj6ePoo-89" value="3" style="rounded=0;whiteSpace=wrap;html=1;fillColor=#dae8fc;strokeColor=#6c8ebf;" vertex="1" parent="0SaOvBT2-kmUVJj6ePoo-81">
          <mxGeometry x="140" width="20" height="20" as="geometry" />
        </mxCell>
        <mxCell id="0SaOvBT2-kmUVJj6ePoo-90" value="2" style="rounded=0;whiteSpace=wrap;html=1;fillColor=#dae8fc;strokeColor=#6c8ebf;" vertex="1" parent="0SaOvBT2-kmUVJj6ePoo-81">
          <mxGeometry x="160" width="20" height="20" as="geometry" />
        </mxCell>
        <mxCell id="0SaOvBT2-kmUVJj6ePoo-91" value="1" style="rounded=0;whiteSpace=wrap;html=1;fillColor=#dae8fc;strokeColor=#6c8ebf;" vertex="1" parent="0SaOvBT2-kmUVJj6ePoo-81">
          <mxGeometry x="180" width="20" height="20" as="geometry" />
        </mxCell>
        <mxCell id="0SaOvBT2-kmUVJj6ePoo-92" value="0" style="rounded=0;whiteSpace=wrap;html=1;fillColor=#dae8fc;strokeColor=#6c8ebf;" vertex="1" parent="0SaOvBT2-kmUVJj6ePoo-81">
          <mxGeometry x="200" width="20" height="20" as="geometry" />
        </mxCell>
        <mxCell id="0SaOvBT2-kmUVJj6ePoo-30" value="31" style="rounded=0;whiteSpace=wrap;html=1;fillColor=#fff2cc;strokeColor=#d6b656;" vertex="1" parent="1">
          <mxGeometry x="420" y="140" width="20" height="20" as="geometry" />
        </mxCell>
        <mxCell id="0SaOvBT2-kmUVJj6ePoo-31" value="30" style="rounded=0;whiteSpace=wrap;html=1;fillColor=#fff2cc;strokeColor=#d6b656;" vertex="1" parent="1">
          <mxGeometry x="440" y="140" width="20" height="20" as="geometry" />
        </mxCell>
        <mxCell id="0SaOvBT2-kmUVJj6ePoo-32" value="29" style="rounded=0;whiteSpace=wrap;html=1;fillColor=#fff2cc;strokeColor=#d6b656;" vertex="1" parent="1">
          <mxGeometry x="460" y="140" width="20" height="20" as="geometry" />
        </mxCell>
        <mxCell id="0SaOvBT2-kmUVJj6ePoo-33" value="28" style="rounded=0;whiteSpace=wrap;html=1;fillColor=#fff2cc;strokeColor=#d6b656;" vertex="1" parent="1">
          <mxGeometry x="480" y="140" width="20" height="20" as="geometry" />
        </mxCell>
        <mxCell id="0SaOvBT2-kmUVJj6ePoo-34" value="27" style="rounded=0;whiteSpace=wrap;html=1;fillColor=#fff2cc;strokeColor=#d6b656;" vertex="1" parent="1">
          <mxGeometry x="500" y="140" width="20" height="20" as="geometry" />
        </mxCell>
        <mxCell id="0SaOvBT2-kmUVJj6ePoo-35" value="26" style="rounded=0;whiteSpace=wrap;html=1;fillColor=#fff2cc;strokeColor=#d6b656;" vertex="1" parent="1">
          <mxGeometry x="520" y="140" width="20" height="20" as="geometry" />
        </mxCell>
        <mxCell id="0SaOvBT2-kmUVJj6ePoo-36" value="25" style="rounded=0;whiteSpace=wrap;html=1;fillColor=#fff2cc;strokeColor=#d6b656;" vertex="1" parent="1">
          <mxGeometry x="540" y="140" width="20" height="20" as="geometry" />
        </mxCell>
        <mxCell id="0SaOvBT2-kmUVJj6ePoo-37" value="24" style="rounded=0;whiteSpace=wrap;html=1;fillColor=#fff2cc;strokeColor=#d6b656;" vertex="1" parent="1">
          <mxGeometry x="560" y="140" width="20" height="20" as="geometry" />
        </mxCell>
        <mxCell id="0SaOvBT2-kmUVJj6ePoo-38" value="23" style="rounded=0;whiteSpace=wrap;html=1;fillColor=#fff2cc;strokeColor=#d6b656;" vertex="1" parent="1">
          <mxGeometry x="580" y="140" width="20" height="20" as="geometry" />
        </mxCell>
        <mxCell id="0SaOvBT2-kmUVJj6ePoo-39" value="22" style="rounded=0;whiteSpace=wrap;html=1;fillColor=#fff2cc;strokeColor=#d6b656;" vertex="1" parent="1">
          <mxGeometry x="600" y="140" width="20" height="20" as="geometry" />
        </mxCell>
        <mxCell id="0SaOvBT2-kmUVJj6ePoo-95" value="" style="shape=curlyBracket;whiteSpace=wrap;html=1;rounded=1;rotation=-90;" vertex="1" parent="1">
          <mxGeometry x="610" y="-20" width="20" height="400" as="geometry" />
        </mxCell>
        <mxCell id="0SaOvBT2-kmUVJj6ePoo-96" value="" style="shape=curlyBracket;whiteSpace=wrap;html=1;rounded=1;rotation=-90;" vertex="1" parent="1">
          <mxGeometry x="930" y="60" width="20" height="240" as="geometry" />
        </mxCell>
        <mxCell id="0SaOvBT2-kmUVJj6ePoo-97" value="虚拟页号（VPN）" style="text;html=1;align=center;verticalAlign=middle;resizable=0;points=[];autosize=1;fontSize=14;" vertex="1" parent="1">
          <mxGeometry x="580" y="190" width="130" height="20" as="geometry" />
        </mxCell>
        <mxCell id="0SaOvBT2-kmUVJj6ePoo-98" value="页内偏移（offset）" style="text;html=1;align=center;verticalAlign=middle;resizable=0;points=[];autosize=1;fontSize=14;" vertex="1" parent="1">
          <mxGeometry x="900" y="190" width="130" height="20" as="geometry" />
        </mxCell>
      </root>
    </mxGraphModel>
  </diagram>
</mxfile>
